<svg width="17" height="30" viewBox="0 0 17 30" fill="none" xmlns="http://www.w3.org/2000/svg">
<g clip-path="url(#clip0)">
<path d="M15.4471 0.00618557L11.6031 0C7.28436 0 4.49343 2.87165 4.49343 7.31629V10.6896H0.628371C0.294384 10.6896 0.0239258 10.9611 0.0239258 11.2961V16.1836C0.0239258 16.5186 0.294693 16.7898 0.628371 16.7898H4.49343V29.1226C4.49343 29.4575 4.76388 29.7288 5.09787 29.7288H10.1407C10.4747 29.7288 10.7451 29.4572 10.7451 29.1226V16.7898H15.2643C15.5983 16.7898 15.8687 16.5186 15.8687 16.1836L15.8706 11.2961C15.8706 11.1353 15.8067 10.9812 15.6935 10.8674C15.5804 10.7536 15.4262 10.6896 15.2658 10.6896H10.7451V7.83C10.7451 6.45557 11.0717 5.75783 12.857 5.75783L15.4465 5.75691C15.7802 5.75691 16.0507 5.48536 16.0507 5.15072V0.612371C16.0507 0.278041 15.7805 0.00680412 15.4471 0.00618557Z" fill="url(#paint0_linear)"/>
</g>
<defs>
<linearGradient id="paint0_linear" x1="5.56787" y1="1.8459" x2="15.9005" y2="5.15172" gradientUnits="userSpaceOnUse">
<stop stop-color="#ECBF50"/>
<stop offset="0.348958" stop-color="#E18B23"/>
<stop offset="0.536458" stop-color="#ECBF50"/>
<stop offset="0.807292" stop-color="#E18B23"/>
<stop offset="1" stop-color="#E8B12B"/>
</linearGradient>
<clipPath id="clip0">
<rect width="16.3447" height="30" fill="white"/>
</clipPath>
</defs>
</svg>
